# xmcd
#
# Track frame offsets: 
#        150
#        18695
#        32512
#        54475
#        70517
#        84537
#        99702
#        118695
#        138670
#        153695
#        169930
#        185420
#        198184
#        227797
#        239272
#
# Disc length: 3560 seconds
#
# Revision: 2
# Processed by: cddbd v1.5.2PL0 Copyright (c) Steve Scherf et al.
# Submitted via: ExactAudioCopy v0.90b4
#
DISCID=cb0de60f
DTITLE=The Dells - Oh,What A Night! The Great Ballads
DYEAR=1998
DGENRE=R&B
TTITLE0=Oh,What A Night
TTITLE1=Close Your Eyes
TTITLE2=The Love We Had (Stays On My Mind)
TTITLE3=Soul Strollin'
TTITLE4=Always Together
TTITLE5=O-O I Love You
TTITLE6=My Pretending Days Are Over
TTITLE7=I Miss You
TTITLE8=Does Anybody Know I'm Here?
TTITLE9=I Can't Do Enough
TTITLE10=I Can Sing A Rainbow/Love Is Blue
TTITLE11=Love Is So Simple
TTITLE12=Open Up My Heart (Long Version)
TTITLE13=Since I Fell For You
TTITLE14=Stay In My Corner
EXTD=
EXTT0=
EXTT1=
EXTT2=
EXTT3=
EXTT4=
EXTT5=
EXTT6=
EXTT7=
EXTT8=
EXTT9=
EXTT10=
EXTT11=
EXTT12=
EXTT13=
EXTT14=
PLAYORDER=
